<svg xmlns="http://www.w3.org/2000/svg" viewBox="0 0 1050.22 599.17">
	<defs>
		<style>
			.cls-1 {fill: #0AB7BD;stroke: #0AB7BD;stroke-width: 20px;}
			.cls-1,.cls-2 {stroke-miterlimit: 10;}
			.cls-2 {fill: none;stroke: #1c1c1c;stroke-width: 18px;}
			.cls-3 {fill: #1c1c1c;}
		</style>
	</defs>
	<g id="Layer_2" data-name="Layer 2">
		<g id="Layer_1-2" data-name="Layer 1">
			<path class="cls-1"
				d="M989,276.09H928.28v47H989a6,6,0,0,1,1.83.21c.54.56,2.39,3.87,2.39,11v70.21c0,7.34-2,10.62-2.38,11a5.5,5.5,0,0,1-1.91.22l-113-.78V334.3a58.27,58.27,0,0,0-58.21-58.21H666.17V190H919.8V143H666.17V68.22A58.28,58.28,0,0,0,608,10H12.5V57H174.65v86H68.22A58.29,58.29,0,0,0,10,201.26V398.14a58.36,58.36,0,0,0,57.82,58.22l106.83.74v85.07H12.5v47H817.7A58.27,58.27,0,0,0,875.91,531v-69l112.7.78h.4c13.71,0,25.77-4.78,34.89-13.84,10.68-10.6,16.32-25.95,16.32-44.37V334.3C1040.22,299.48,1019.63,276.09,989,276.09Zm-171.3,47a11.22,11.22,0,0,1,11.21,11.21v80.32l-607.26-4.2V323.09H817.7Zm-198.53-47H221.65V190H619.17ZM221.65,57H608a11.23,11.23,0,0,1,11.21,11.22V143H221.65ZM68.14,409.36A11.24,11.24,0,0,1,57,398.14V201.26A11.23,11.23,0,0,1,68.22,190H174.65V410.1ZM828.91,531a11.22,11.22,0,0,1-11.21,11.21H221.65V457.42l607.26,4.2Z" />
			<path class="cls-2" d="M32.65,32.23H603.34c18.58,0,33.65,15.06,37.65,33.65V300.4l-445.67-.49V32.23" />
			<path class="cls-2"
				d="M32.65,567h779c18.58,0,33.65-15.07,37.65-33.65V334c-4-18.57-19.05-33.63-37.63-33.65l-616.37-.46-1.39,267" />
			<path class="cls-2"
				d="M903.65,166.31H69.25c-18.59,0-33.65,15.07-35.65,33.65V400c2,18.49,16.92,33.52,35.41,33.65l915,6.64a33.66,33.66,0,0,0,33.88-34.65l-2.17-73.09a33.65,33.65,0,0,0-33.63-32.66H948.65" />
			<rect class="cls-3" x="866.95" y="423.95" width="67.5" height="29.44"
				transform="translate(1343.61 -459.95) rotate(90.27)" />
			<rect class="cls-3" x="116.17" y="151.37" width="67.5" height="29.44"
				transform="translate(316.2 16.38) rotate(90.07)" />
			<rect class="cls-3" x="608.83" y="103.49" width="67.5" height="29.44"
				transform="translate(1285.16 236.43) rotate(180)" />
			<rect class="cls-3" x="164.32" y="467.36" width="67.5" height="29.44"
				transform="translate(393.28 965.34) rotate(-179.66)" />
		</g>
	</g>
</svg>